<svg width="512" height="512" viewBox="0 0 512 512" xmlns="http://www.w3.org/2000/svg">
  <defs>
    <linearGradient id="al-blue" x1="0" y1="0" x2="1" y2="1">
      <stop offset="0%" stop-color="#60a5fa"/>
      <stop offset="100%" stop-color="#6366f1"/>
    </linearGradient>
    <filter id="al-shadow" x="-20%" y="-20%" width="140%" height="140%">
      <feDropShadow dx="0" dy="8" stdDeviation="12" flood-color="#000" flood-opacity="0.35"/>
    </filter>
    <filter id="al-smallShadow">
      <feDropShadow dx="0" dy="4" stdDeviation="6" flood-color="#000" flood-opacity="0.3"/>
    </filter>
    <linearGradient id="al-highlight" x1="0" y1="0" x2="0" y2="1">
      <stop offset="0%" stop-color="#ffffff" stop-opacity="0.35"/>
      <stop offset="100%" stop-color="#ffffff" stop-opacity="0"/>
    </linearGradient>
  </defs>
  <g transform="translate(96,110)" filter="url(#al-shadow)">
    <path d="M60 0 H260 Q320 0 320 60 V160 Q320 220 260 220 H140 L95 260 Q90 235 70 220 H60 Q0 220 0 160 V60 Q0 0 60 0 Z" fill="#e5e7eb"/>
    <path d="M60 0 H260 Q320 0 320 60 V90 H0 V60 Q0 0 60 0 Z" fill="url(#al-highlight)"/>
    <rect x="70" y="60" width="180" height="60" rx="30" fill="#0f172a"/>
    <g id="eyes">
      <rect x="95" y="78" width="45" height="28" rx="14" fill="url(#al-blue)"/>
      <rect x="180" y="78" width="45" height="28" rx="14" fill="url(#al-blue)"/>
    </g>
    <rect x="120" y="145" width="80" height="30" rx="10" fill="#0f172a"/>
    <g id="mouthSquares">
      <rect x="130" y="155" width="15" height="10" rx="2" fill="#22c55e"/>
      <rect x="150" y="155" width="15" height="10" rx="2" fill="#22c55e"/>
      <rect x="170" y="155" width="15" height="10" rx="2" fill="#22c55e"/>
    </g>
  </g>
  <g transform="translate(220,320)" filter="url(#al-smallShadow)">
    <rect x="0" y="40" width="200" height="110" rx="20" fill="#f8fafc"/>
    <rect x="20" y="70" width="140" height="10" rx="5" fill="#94a3b8"/>
    <rect x="20" y="95" width="110" height="10" rx="5" fill="#94a3b8"/>
    <path d="M140 75 l20 0 l-10 -10 M140 75 l20 0 l-10 10" stroke="#1e293b" stroke-width="3" fill="none" stroke-linecap="round"/>
    <g id="clapperTop" transform="rotate(-25 20 40)">
      <rect x="0" y="0" width="200" height="50" rx="12" fill="#1e293b"/>
      <rect x="10" y="10" width="40" height="10" fill="#fbbf24"/>
      <rect x="60" y="10" width="40" height="10" fill="#fbbf24"/>
      <rect x="110" y="10" width="40" height="10" fill="#fbbf24"/>
    </g>
  </g>
</svg>
